<svg width="1200" height="630" viewBox="0 0 1200 630" fill="none" xmlns="http://www.w3.org/2000/svg">
  <!-- Background Gradient -->
  <defs>
    <linearGradient id="bgGradient" x1="0%" y1="0%" x2="100%" y2="100%">
      <stop offset="0%" style="stop-color:#4f46e5;stop-opacity:1" />
      <stop offset="50%" style="stop-color:#7c3aed;stop-opacity:1" />
      <stop offset="100%" style="stop-color:#a855f7;stop-opacity:1" />
    </linearGradient>
  </defs>
  
  <!-- Background -->
  <rect width="1200" height="630" fill="url(#bgGradient)"/>
  
  <!-- Decorative Elements -->
  <circle cx="100" cy="100" r="60" fill="white" opacity="0.1"/>
  <circle cx="1100" cy="530" r="80" fill="white" opacity="0.08"/>
  <circle cx="1000" cy="150" r="40" fill="white" opacity="0.12"/>
  
  <!-- Main Content -->
  <text x="600" y="280" text-anchor="middle" font-family="Arial, sans-serif" font-size="72" font-weight="bold" fill="white">
    Letranido
  </text>
  
  <text x="600" y="340" text-anchor="middle" font-family="Arial, sans-serif" font-size="32" fill="white" opacity="0.9">
    Comunidad de Escritura Creativa
  </text>
  
  <text x="600" y="420" text-anchor="middle" font-family="Arial, sans-serif" font-size="24" fill="white" opacity="0.8">
    Concursos mensuales • Historias originales • Comunidad de escritores
  </text>
  
  <!-- Pen Icon -->
  <g transform="translate(540, 460)">
    <path d="M3 21v-4l12-12 4 4-12 12H3z" stroke="white" stroke-width="2" fill="none" opacity="0.6"/>
    <path d="M15 5l4 4" stroke="white" stroke-width="2" opacity="0.6"/>
  </g>
  
  <!-- Book Icon -->
  <g transform="translate(640, 460)">
    <path d="M4 19.5A2.5 2.5 0 0 1 6.5 17H20" stroke="white" stroke-width="2" fill="none" opacity="0.6"/>
    <path d="M6.5 2H20v20H6.5A2.5 2.5 0 0 1 4 19.5v-15A2.5 2.5 0 0 1 6.5 2z" stroke="white" stroke-width="2" fill="none" opacity="0.6"/>
  </g>
</svg>